<svg xmlns="http://www.w3.org/2000/svg" xmlns:xlink="http://www.w3.org/1999/xlink" width="16" height="22" viewBox="0 0 16 22">
    <defs>
        <path id="a" d="M15.429 4.375h-4.762v-1.75c0-.963-.686-1.75-1.524-1.75H6.857c-.838 0-1.524.787-1.524 1.75v1.75H.571C.267 4.375 0 4.68 0 5.03v1.312C0 6.693.267 7 .571 7H15.43c.304 0 .571-.306.571-.656V5.031c0-.35-.267-.656-.571-.656zM6.857 3.062c0-.262.153-.437.381-.437h1.524c.228 0 .38.175.38.437v1.313H6.858V3.062zm7.048 5.687H2.095c-.305 0-.571.307-.571.657v10.28c0 1.225.838 2.187 1.905 2.187h9.142c1.067 0 1.905-.962 1.905-2.187V9.406c0-.35-.266-.657-.571-.657zm-7.048 9.625c0 .262-.152.437-.38.437h-.763c-.228 0-.38-.175-.38-.437v-6.125c0-.262.152-.437.38-.437h.762c.229 0 .381.175.381.437v6.125zm3.81 0c0 .262-.153.437-.381.437h-.762c-.229 0-.381-.175-.381-.437v-6.125c0-.262.152-.437.38-.437h.763c.228 0 .38.175.38.437v6.125z"/>
    </defs>
    <use fill="#626161" fill-rule="evenodd" xlink:href="#a"/>
</svg>
