<svg xmlns="http://www.w3.org/2000/svg" width="15" height="15" viewBox="0 0 15 15">
    <path fill="#544E47" fill-rule="nonzero" d="M5.576 0A5.585 5.585 0 0 0 0 5.578a5.585 5.585 0 0 0 5.576 5.576c.98 0 1.903-.251 2.704-.698l4.098 4.098c.596.596 1.58.596 2.175 0a1.547 1.547 0 0 0 0-2.175L10.455 8.28a5.55 5.55 0 0 0 .698-2.704A5.585 5.585 0 0 0 5.577 0h-.001zm0 1.154a4.414 4.414 0 0 1 4.422 4.423 4.414 4.414 0 0 1-4.422 4.422 4.414 4.414 0 0 1-4.422-4.422 4.413 4.413 0 0 1 4.422-4.423zm4.2 8.082l3.96 3.954a.375.375 0 0 1 0 .547.375.375 0 0 1-.548 0l-3.953-3.96c.192-.167.373-.348.54-.54z"/>
</svg>
